<svg width="16" height="16" viewBox="0 0 16 16" fill="none" xmlns="http://www.w3.org/2000/svg">
<path fill-rule="evenodd" clip-rule="evenodd" d="M8 16C12.4183 16 16 12.4183 16 8C16 3.58172 12.4183 0 8 0C3.58172 0 0 3.58172 0 8C0 12.4183 3.58172 16 8 16ZM7.21156 9.89867H9.07822V4H7.21156V9.89867ZM7.08711 11.2924C7.02904 11.4335 7 11.5828 7 11.7404C7 11.8981 7.02904 12.0474 7.08711 12.1884C7.14519 12.3295 7.224 12.4539 7.32356 12.5618C7.43141 12.6613 7.55585 12.7401 7.69689 12.7982C7.83793 12.8563 7.98726 12.8853 8.14489 12.8853C8.30252 12.8853 8.45185 12.8563 8.59289 12.7982C8.73393 12.7401 8.85422 12.6613 8.95378 12.5618C9.06163 12.4539 9.14459 12.3295 9.20267 12.1884C9.26074 12.0474 9.28978 11.8981 9.28978 11.7404C9.28978 11.5828 9.26074 11.4335 9.20267 11.2924C9.14459 11.1514 9.06163 11.0311 8.95378 10.9316C8.85422 10.8237 8.73393 10.7407 8.59289 10.6827C8.45185 10.6246 8.30252 10.5956 8.14489 10.5956C7.98726 10.5956 7.83793 10.6246 7.69689 10.6827C7.55585 10.7407 7.43141 10.8237 7.32356 10.9316C7.224 11.0311 7.14519 11.1514 7.08711 11.2924Z" fill="#FFC42B"/>
</svg>
