<svg width="69" height="28" viewBox="0 0 69 28" fill="none" xmlns="http://www.w3.org/2000/svg">
<path d="M24.6122 7.39056C24.6122 7.59952 24.5404 7.7693 24.3967 7.8999C24.2531 8.01743 24.0768 8.07621 23.8678 8.07621H13.9358V8.29169C13.9358 9.08835 13.877 9.93724 13.7594 10.8384C13.6419 11.7395 13.4787 12.6406 13.2697 13.5418C13.0738 14.4298 12.8453 15.2983 12.5841 16.1472C12.3359 16.9961 12.0747 17.7797 11.8005 18.498C11.5393 19.2163 11.2781 19.8432 11.0169 20.3786C10.7557 20.901 10.5206 21.2928 10.3116 21.554C10.4814 22.1548 10.6838 22.7164 10.9189 23.2387C11.154 23.7481 11.4152 24.1987 11.7025 24.5904C12.0029 24.9692 12.3229 25.2696 12.6624 25.4916C13.002 25.7136 13.3676 25.8246 13.7594 25.8246C14.2165 25.8246 14.6671 25.6352 15.1111 25.2565C15.5682 24.8647 15.9862 24.4076 16.3649 23.8852C16.7567 23.3498 17.0962 22.8143 17.3836 22.2788C17.6839 21.7303 17.8994 21.2928 18.03 20.9663C18.1606 20.6529 18.3892 20.4962 18.7157 20.4962C18.9377 20.4962 19.114 20.5745 19.2446 20.7312C19.3883 20.888 19.4601 21.0577 19.4601 21.2406C19.4601 21.332 19.4405 21.4234 19.4013 21.5148C19.3621 21.6063 19.2642 21.8152 19.1075 22.1417C18.9638 22.4682 18.7679 22.847 18.5198 23.2779C18.2847 23.7089 18.0039 24.166 17.6774 24.6492C17.364 25.1194 17.0048 25.5504 16.6 25.9421C16.2082 26.3339 15.7837 26.6604 15.3266 26.9216C14.8695 27.1828 14.3863 27.3134 13.877 27.3134C12.9759 27.3134 12.1661 27.0196 11.4478 26.4319C10.7295 25.8442 10.1157 25.0214 9.6064 23.9636C9.11012 22.9057 8.73138 21.652 8.47019 20.2023C8.20899 18.7527 8.07839 17.1659 8.07839 15.442C8.07839 15.011 8.08492 14.5082 8.09798 13.9336C8.11104 13.3459 8.13716 12.7321 8.17634 12.0921C8.21552 11.4391 8.27429 10.7731 8.35265 10.094C8.43101 9.40178 8.53549 8.7292 8.66608 8.07621H1.63333C1.42437 8.07621 1.24806 8.01743 1.1044 7.8999C0.960745 7.7693 0.888916 7.59952 0.888916 7.39056C0.888916 7.1816 0.960745 7.01835 1.1044 6.90082C1.24806 6.77022 1.42437 6.70492 1.63333 6.70492H8.99911C9.12971 6.23476 9.2799 5.80378 9.44968 5.41199C9.63252 5.02019 9.83494 4.68063 10.057 4.39331C10.292 4.106 10.5467 3.88398 10.821 3.72726C11.1083 3.55748 11.4217 3.47259 11.7613 3.47259C12.0878 3.47259 12.3686 3.55748 12.6036 3.72726C12.8518 3.88398 13.0607 4.106 13.2305 4.39331C13.4003 4.68063 13.5309 5.02019 13.6223 5.41199C13.7268 5.80378 13.8052 6.23476 13.8574 6.70492H23.8678C24.0768 6.70492 24.2531 6.77022 24.3967 6.90082C24.5404 7.01835 24.6122 7.1816 24.6122 7.39056ZM9.86106 19.595C10.2529 18.7331 10.6055 17.8058 10.9189 16.8133C11.2454 15.8077 11.5197 14.7955 11.7417 13.7769C11.9768 12.7582 12.1531 11.7591 12.2706 10.7796C12.4012 9.80011 12.4665 8.89898 12.4665 8.07621H10.1549C9.97207 8.88592 9.82189 9.89153 9.70435 11.093C9.59987 12.2815 9.54763 13.7311 9.54763 15.442C9.54763 16.3954 9.57375 17.1985 9.62599 17.8515C9.67823 18.4915 9.75659 19.0726 9.86106 19.595ZM11.6829 4.94183C11.5654 4.94183 11.3956 5.07243 11.1736 5.33363C10.9516 5.58176 10.7295 6.03886 10.5075 6.70492H12.3882C12.3229 6.1564 12.2249 5.72542 12.0943 5.41199C11.9768 5.09855 11.8396 4.94183 11.6829 4.94183ZM10.1745 21.0055V21.0251V21.0055Z" fill="white" fill-opacity="0.9"/>
<path d="M27.1393 24.8451C26.8128 24.8451 26.5255 24.819 26.2774 24.7668C26.0815 25.1586 25.8464 25.5242 25.5721 25.8638C25.2979 26.1903 24.9779 26.4776 24.6122 26.7257C24.2596 26.9739 23.8613 27.1698 23.4172 27.3134C22.9732 27.4571 22.49 27.5289 21.9676 27.5289C21.3538 27.5289 20.7922 27.4179 20.2829 27.1959C19.7735 26.9869 19.3295 26.6931 18.9508 26.3144C18.572 25.9226 18.2782 25.4589 18.0692 24.9235C17.8603 24.375 17.7558 23.7742 17.7558 23.1212C17.7558 22.2854 17.906 21.5605 18.2063 20.9467C18.5067 20.3199 18.8528 19.804 19.2446 19.3991C19.6364 18.9812 20.0282 18.6743 20.42 18.4784C20.8118 18.2695 21.1056 18.165 21.3015 18.165C21.5236 18.165 21.6868 18.2237 21.7913 18.3413C21.9088 18.4588 21.9676 18.6155 21.9676 18.8114C21.9676 19.0335 21.8958 19.2032 21.7521 19.3208C21.6215 19.4253 21.4517 19.5297 21.2428 19.6342C21.0338 19.7387 20.8118 19.8889 20.5767 20.0848C20.3416 20.2676 20.1196 20.5027 19.9107 20.79C19.7148 21.0773 19.5515 21.4169 19.4209 21.8087C19.2903 22.2005 19.225 22.638 19.225 23.1212C19.225 23.5522 19.2903 23.957 19.4209 24.3358C19.5515 24.7015 19.7409 25.0214 19.989 25.2957C20.2372 25.5569 20.531 25.7658 20.8706 25.9226C21.2101 26.0662 21.5889 26.138 22.0068 26.138C22.7512 26.138 23.365 25.9683 23.8482 25.6287C24.3445 25.2761 24.7232 24.8321 24.9844 24.2966C24.2139 23.8917 23.5805 23.3171 23.0842 22.5727C22.5879 21.8283 22.3398 20.9924 22.3398 20.0652C22.3398 19.3208 22.5161 18.7135 22.8687 18.2433C23.2344 17.7732 23.7111 17.5381 24.2988 17.5381C24.6514 17.5381 24.9844 17.623 25.2979 17.7928C25.6113 17.9625 25.8856 18.2303 26.1206 18.596C26.3688 18.9616 26.5647 19.4318 26.7083 20.0064C26.852 20.5811 26.9238 21.2667 26.9238 22.0634C26.9238 22.4813 26.8716 22.9188 26.7671 23.3759C26.8455 23.3889 26.9238 23.3955 27.0022 23.3955C27.0805 23.3955 27.1654 23.3955 27.2568 23.3955C27.7009 23.3955 28.0992 23.3432 28.4518 23.2387C28.8044 23.1343 29.1244 22.9775 29.4117 22.7686C29.699 22.5596 29.9537 22.2919 30.1757 21.9654C30.4108 21.6389 30.6328 21.2602 30.8418 20.8292C30.881 20.7508 30.9659 20.679 31.0965 20.6137C31.2271 20.5353 31.3577 20.4962 31.4883 20.4962C31.658 20.4962 31.8147 20.568 31.9584 20.7117C32.1151 20.8423 32.1935 21.0186 32.1935 21.2406C32.1935 21.3451 32.1674 21.4626 32.1151 21.5932C32.0629 21.7107 32.0106 21.8217 31.9584 21.9262C31.7364 22.318 31.4752 22.6968 31.1748 23.0624C30.8875 23.4151 30.5414 23.7285 30.1366 24.0028C29.7448 24.2639 29.3007 24.4729 28.8044 24.6296C28.3082 24.7863 27.7531 24.8582 27.1393 24.8451ZM23.7894 19.9085C23.7894 20.1566 23.8221 20.4178 23.8874 20.6921C23.9527 20.9663 24.0506 21.2406 24.1812 21.5148C24.3249 21.776 24.4947 22.0307 24.6906 22.2788C24.8995 22.5139 25.1411 22.7163 25.4154 22.8861C25.4546 22.6119 25.4742 22.3441 25.4742 22.0829C25.4742 21.7303 25.4481 21.3712 25.3958 21.0055C25.3436 20.6398 25.2652 20.3068 25.1607 20.0064C25.0693 19.693 24.9518 19.4448 24.8081 19.262C24.6645 19.0661 24.4947 18.9682 24.2988 18.9682C24.2204 18.9682 24.1159 19.0269 23.9853 19.1445C23.8547 19.262 23.7894 19.5167 23.7894 19.9085Z" fill="white" fill-opacity="0.9"/>
<path d="M47.2189 21.2994C47.8588 24.3162 48.7861 25.8246 50.0007 25.8246C50.4708 25.8246 50.9214 25.6548 51.3524 25.3153C51.7833 24.9627 52.1817 24.5382 52.5473 24.0419C52.9261 23.5326 53.2591 22.9971 53.5464 22.4356C53.8337 21.874 54.0688 21.3842 54.2517 20.9663C54.3823 20.6529 54.6108 20.4962 54.9373 20.4962C55.1463 20.4962 55.3226 20.5745 55.4662 20.7312C55.6099 20.888 55.6817 21.0577 55.6817 21.2406C55.6817 21.3451 55.6621 21.4365 55.6229 21.5148C55.5315 21.7369 55.3944 22.0372 55.2116 22.416C55.0418 22.7817 54.8263 23.18 54.5651 23.611C54.317 24.0289 54.0362 24.4598 53.7227 24.9039C53.4093 25.3479 53.0632 25.7462 52.6845 26.0989C52.3057 26.4515 51.9009 26.7453 51.4699 26.9804C51.052 27.2024 50.6079 27.3134 50.1378 27.3134C49.2628 27.3134 48.5118 27.0131 47.885 26.4123C47.2581 25.7985 46.7161 24.7929 46.259 23.3955C45.6321 24.7276 44.9987 25.694 44.3588 26.2948C43.7188 26.8955 43.0267 27.1959 42.2823 27.1959C41.8905 27.1959 41.5117 27.1306 41.146 27C40.7804 26.8825 40.4604 26.68 40.1861 26.3927C39.9119 26.1054 39.6899 25.7397 39.5201 25.2957C39.3503 24.8386 39.2654 24.2835 39.2654 23.6305C39.2654 22.7294 39.4221 21.9001 39.7356 21.1426C40.049 20.3852 40.4539 19.7387 40.9501 19.2032C41.4464 18.6547 41.9949 18.2303 42.5957 17.9299C43.2095 17.6295 43.8168 17.4793 44.4176 17.4793C44.6135 17.4793 44.7832 17.5512 44.9269 17.6948C45.0705 17.8254 45.1424 17.9952 45.1424 18.2042C45.1424 18.387 45.0836 18.5502 44.9661 18.6939C44.8485 18.8376 44.6918 18.9225 44.4959 18.9486C44.1041 19.0008 43.6862 19.1249 43.2422 19.3208C42.7981 19.5167 42.3867 19.804 42.008 20.1827C41.6423 20.5484 41.3354 21.0186 41.0873 21.5932C40.8522 22.1678 40.7347 22.8535 40.7347 23.6501C40.7347 24.3031 40.8653 24.8125 41.1265 25.1781C41.4007 25.5438 41.7925 25.7267 42.3018 25.7267C42.5108 25.7267 42.7328 25.6744 42.9679 25.5699C43.203 25.4524 43.4511 25.2304 43.7123 24.9039C43.9866 24.5774 44.2804 24.1138 44.5939 23.513C44.9204 22.9122 45.2795 22.1221 45.6713 21.1426C45.4493 19.9934 45.2469 18.6678 45.064 17.1659C44.8812 15.664 44.7898 13.9858 44.7898 12.1313C44.7898 11.3216 44.8159 10.4792 44.8681 9.60421C44.9204 8.71614 45.0052 7.85419 45.1228 7.01835C45.2403 6.16946 45.397 5.36628 45.5929 4.6088C45.7888 3.85133 46.0239 3.18527 46.2982 2.61064C46.5855 2.036 46.9185 1.58544 47.2973 1.25894C47.676 0.919381 48.107 0.749603 48.5902 0.749603C49.0212 0.749603 49.3868 0.867141 49.6872 1.10222C49.9876 1.3373 50.2292 1.6638 50.412 2.08171C50.6079 2.49963 50.7516 3.00244 50.843 3.59013C50.9344 4.17783 50.9802 4.82429 50.9802 5.52952C50.9802 7.04447 50.8495 8.55942 50.5884 10.0744C50.3272 11.5893 50.0007 13.039 49.6089 14.4233C49.2301 15.8077 48.8253 17.0875 48.3943 18.2629C47.9633 19.4383 47.5715 20.4505 47.2189 21.2994ZM49.5109 5.50993C49.5109 5.18344 49.4979 4.83082 49.4717 4.45208C49.4587 4.07335 49.413 3.72073 49.3346 3.39423C49.2693 3.05467 49.1779 2.77389 49.0603 2.55187C48.9428 2.32985 48.7861 2.21884 48.5902 2.21884C48.2637 2.21884 47.9568 2.50616 47.6695 3.08079C47.3952 3.65543 47.1536 4.4129 46.9446 5.35322C46.7357 6.28047 46.5659 7.33832 46.4353 8.52677C46.3178 9.70216 46.259 10.8906 46.259 12.0921C46.259 13.2414 46.3047 14.3907 46.3961 15.5399C46.4875 16.6892 46.592 17.7144 46.7096 18.6155C47.0883 17.6099 47.4474 16.5782 47.787 15.5203C48.1266 14.4494 48.4204 13.3589 48.6685 12.2488C48.9297 11.1388 49.1322 10.0221 49.2758 8.89898C49.4326 7.76277 49.5109 6.63309 49.5109 5.50993Z" fill="white" fill-opacity="0.9"/>
<path d="M63.3022 24.8451C62.9757 24.8451 62.6884 24.819 62.4402 24.7668C62.2443 25.1586 62.0092 25.5242 61.735 25.8638C61.4607 26.1903 61.1408 26.4776 60.7751 26.7257C60.4225 26.9739 60.0241 27.1698 59.5801 27.3134C59.1361 27.4571 58.6528 27.5289 58.1304 27.5289C57.5166 27.5289 56.9551 27.4179 56.4457 27.1959C55.9364 26.9869 55.4923 26.6931 55.1136 26.3144C54.7349 25.9226 54.441 25.4589 54.2321 24.9235C54.0231 24.375 53.9186 23.7742 53.9186 23.1212C53.9186 22.2854 54.0688 21.5605 54.3692 20.9467C54.6696 20.3199 55.0157 19.804 55.4075 19.3991C55.7993 18.9812 56.1911 18.6743 56.5828 18.4784C56.9746 18.2695 57.2685 18.165 57.4644 18.165C57.6864 18.165 57.8497 18.2237 57.9541 18.3413C58.0717 18.4588 58.1304 18.6155 58.1304 18.8114C58.1304 19.0335 58.0586 19.2032 57.915 19.3208C57.7844 19.4253 57.6146 19.5297 57.4056 19.6342C57.1967 19.7387 56.9746 19.8889 56.7396 20.0848C56.5045 20.2676 56.2825 20.5027 56.0735 20.79C55.8776 21.0773 55.7144 21.4169 55.5838 21.8087C55.4532 22.2005 55.3879 22.638 55.3879 23.1212C55.3879 23.5522 55.4532 23.957 55.5838 24.3358C55.7144 24.7015 55.9037 25.0214 56.1519 25.2957C56.4 25.5569 56.6939 25.7658 57.0334 25.9226C57.373 26.0662 57.7517 26.138 58.1696 26.138C58.914 26.138 59.5279 25.9683 60.0111 25.6287C60.5073 25.2761 60.8861 24.8321 61.1473 24.2966C60.3767 23.8917 59.7433 23.3171 59.2471 22.5727C58.7508 21.8283 58.5027 20.9924 58.5027 20.0652C58.5027 19.3208 58.679 18.7135 59.0316 18.2433C59.3973 17.7732 59.8739 17.5381 60.4616 17.5381C60.8143 17.5381 61.1473 17.623 61.4607 17.7928C61.7742 17.9625 62.0484 18.2303 62.2835 18.596C62.5316 18.9616 62.7275 19.4318 62.8712 20.0064C63.0148 20.5811 63.0867 21.2667 63.0867 22.0634C63.0867 22.4813 63.0344 22.9188 62.93 23.3759C63.0083 23.3889 63.0867 23.3955 63.165 23.3955C63.2434 23.3955 63.3283 23.3955 63.4197 23.3955C63.8637 23.3955 64.2621 23.3432 64.6147 23.2387C64.9673 23.1343 65.2873 22.9775 65.5746 22.7686C65.8619 22.5596 66.1166 22.2919 66.3386 21.9654C66.5737 21.6389 66.7957 21.2602 67.0046 20.8292C67.0438 20.7508 67.1287 20.679 67.2593 20.6137C67.3899 20.5353 67.5205 20.4962 67.6511 20.4962C67.8209 20.4962 67.9776 20.568 68.1213 20.7117C68.278 20.8423 68.3563 21.0186 68.3563 21.2406C68.3563 21.3451 68.3302 21.4626 68.278 21.5932C68.2257 21.7107 68.1735 21.8217 68.1213 21.9262C67.8992 22.318 67.638 22.6968 67.3377 23.0624C67.0504 23.4151 66.7043 23.7285 66.2994 24.0028C65.9076 24.2639 65.4636 24.4729 64.9673 24.6296C64.471 24.7863 63.916 24.8582 63.3022 24.8451ZM59.9523 19.9085C59.9523 20.1566 59.985 20.4178 60.0503 20.6921C60.1156 20.9663 60.2135 21.2406 60.3441 21.5148C60.4878 21.776 60.6575 22.0307 60.8534 22.2788C61.0624 22.5139 61.304 22.7163 61.5783 22.8861C61.6174 22.6119 61.637 22.3441 61.637 22.0829C61.637 21.7303 61.6109 21.3712 61.5587 21.0055C61.5064 20.6398 61.4281 20.3068 61.3236 20.0064C61.2322 19.693 61.1146 19.4448 60.971 19.262C60.8273 19.0661 60.6575 18.9682 60.4616 18.9682C60.3833 18.9682 60.2788 19.0269 60.1482 19.1445C60.0176 19.262 59.9523 19.5167 59.9523 19.9085Z" fill="white" fill-opacity="0.9"/>
</svg>
