<svg width="102" height="25" viewBox="0 0 102 25" fill="none" xmlns="http://www.w3.org/2000/svg">
<path d="M32.8438 18.4531C33.3542 20.8594 34.0938 22.0625 35.0625 22.0625C35.4375 22.0625 35.7969 21.9271 36.1406 21.6562C36.4844 21.375 36.8021 21.0364 37.0938 20.6406C37.3958 20.2344 37.6615 19.8073 37.8906 19.3594C38.1198 18.9114 38.3073 18.5208 38.4531 18.1875C38.5573 17.9375 38.7396 17.8125 39 17.8125C39.1667 17.8125 39.3073 17.875 39.4219 18C39.5365 18.125 39.5938 18.2604 39.5938 18.4062C39.5938 18.4896 39.5781 18.5625 39.5469 18.625C39.474 18.8021 39.3646 19.0417 39.2188 19.3437C39.0833 19.6354 38.9115 19.9531 38.7031 20.2969C38.5052 20.6302 38.2812 20.9739 38.0312 21.3281C37.7812 21.6823 37.5052 22 37.2031 22.2812C36.901 22.5625 36.5781 22.7969 36.2344 22.9844C35.901 23.1614 35.5469 23.25 35.1719 23.25C34.474 23.25 33.875 23.0104 33.375 22.5312C32.875 22.0417 32.4427 21.2396 32.0781 20.125C31.5781 21.1875 31.0729 21.9583 30.5625 22.4375C30.0521 22.9167 29.5 23.1562 28.9062 23.1562C28.5938 23.1562 28.2917 23.1042 28 23C27.7083 22.9062 27.4531 22.7448 27.2344 22.5156C27.0156 22.2864 26.8385 21.9948 26.7031 21.6406C26.5677 21.276 26.5 20.8333 26.5 20.3125C26.5 19.5937 26.625 18.9323 26.875 18.3281C27.125 17.7239 27.4479 17.2083 27.8438 16.7812C28.2396 16.3437 28.6771 16.0052 29.1562 15.7656C29.6458 15.526 30.1302 15.4062 30.6094 15.4062C30.7656 15.4062 30.901 15.4635 31.0156 15.5781C31.1302 15.6823 31.1875 15.8177 31.1875 15.9844C31.1875 16.1302 31.1406 16.2604 31.0469 16.375C30.9531 16.4896 30.8281 16.5573 30.6719 16.5781C30.3594 16.6198 30.026 16.7187 29.6719 16.875C29.3177 17.0312 28.9896 17.2604 28.6875 17.5625C28.3958 17.8542 28.151 18.2292 27.9531 18.6875C27.7656 19.1458 27.6719 19.6927 27.6719 20.3281C27.6719 20.8489 27.776 21.2552 27.9844 21.5469C28.2031 21.8385 28.5156 21.9844 28.9219 21.9844C29.0885 21.9844 29.2656 21.9427 29.4531 21.8594C29.6406 21.7656 29.8385 21.5885 30.0469 21.3281C30.2656 21.0677 30.5 20.6979 30.75 20.2187C31.0104 19.7396 31.2969 19.1094 31.6094 18.3281C31.4323 17.4114 31.2708 16.3542 31.125 15.1562C30.9792 13.9583 30.9062 12.6198 30.9062 11.1406C30.9062 10.4948 30.9271 9.82291 30.9688 9.12499C31.0104 8.41666 31.0781 7.72916 31.1719 7.06249C31.2656 6.38541 31.3906 5.74478 31.5469 5.14061C31.7031 4.53645 31.8906 4.0052 32.1094 3.54686C32.3385 3.08853 32.6042 2.72916 32.9062 2.46874C33.2083 2.19791 33.5521 2.06249 33.9375 2.06249C34.2812 2.06249 34.5729 2.15624 34.8125 2.34374C35.0521 2.53124 35.2448 2.79166 35.3906 3.12499C35.5469 3.45832 35.6615 3.85936 35.7344 4.32811C35.8073 4.79686 35.8438 5.31249 35.8438 5.87499C35.8438 7.08332 35.7396 8.29166 35.5312 9.49999C35.3229 10.7083 35.0625 11.8646 34.75 12.9687C34.4479 14.0729 34.125 15.0937 33.7812 16.0312C33.4375 16.9687 33.125 17.776 32.8438 18.4531ZM34.6719 5.85936C34.6719 5.59895 34.6615 5.3177 34.6406 5.01561C34.6302 4.71353 34.5938 4.43228 34.5312 4.17186C34.4792 3.90103 34.4062 3.67707 34.3125 3.49999C34.2188 3.32291 34.0938 3.23436 33.9375 3.23436C33.6771 3.23436 33.4323 3.46353 33.2031 3.92186C32.9844 4.3802 32.7917 4.98436 32.625 5.73436C32.4583 6.47395 32.3229 7.3177 32.2188 8.26561C32.125 9.20312 32.0781 10.151 32.0781 11.1094C32.0781 12.026 32.1146 12.9427 32.1875 13.8594C32.2604 14.776 32.3438 15.5937 32.4375 16.3125C32.7396 15.5104 33.026 14.6875 33.2969 13.8437C33.5677 12.9896 33.8021 12.1198 34 11.2344C34.2083 10.3489 34.3698 9.45832 34.4844 8.56249C34.6094 7.65624 34.6719 6.7552 34.6719 5.85936Z" fill="#2C43E4"/>
<path d="M45.6719 21.2812C45.4115 21.2812 45.1823 21.2604 44.9844 21.2187C44.8281 21.5312 44.6406 21.8229 44.4219 22.0937C44.2031 22.3542 43.9479 22.5833 43.6562 22.7812C43.375 22.9792 43.0573 23.1354 42.7031 23.25C42.349 23.3646 41.9635 23.4219 41.5469 23.4219C41.0573 23.4219 40.6094 23.3333 40.2031 23.1562C39.7969 22.9896 39.4427 22.7552 39.1406 22.4531C38.8385 22.1406 38.6042 21.7708 38.4375 21.3437C38.2708 20.9062 38.1875 20.4271 38.1875 19.9062C38.1875 19.2396 38.3073 18.6614 38.5469 18.1719C38.7865 17.6719 39.0625 17.2604 39.375 16.9375C39.6875 16.6042 40 16.3594 40.3125 16.2031C40.625 16.0364 40.8594 15.9531 41.0156 15.9531C41.1927 15.9531 41.3229 16 41.4062 16.0937C41.5 16.1875 41.5469 16.3125 41.5469 16.4687C41.5469 16.6458 41.4896 16.7812 41.375 16.875C41.2708 16.9583 41.1354 17.0417 40.9688 17.125C40.8021 17.2083 40.625 17.3281 40.4375 17.4844C40.25 17.6302 40.0729 17.8177 39.9062 18.0469C39.75 18.276 39.6198 18.5469 39.5156 18.8594C39.4115 19.1719 39.3594 19.5208 39.3594 19.9062C39.3594 20.25 39.4115 20.5729 39.5156 20.875C39.6198 21.1667 39.7708 21.4219 39.9688 21.6406C40.1667 21.8489 40.401 22.0156 40.6719 22.1406C40.9427 22.2552 41.2448 22.3125 41.5781 22.3125C42.1719 22.3125 42.6615 22.1771 43.0469 21.9062C43.4427 21.625 43.7448 21.2708 43.9531 20.8437C43.3385 20.5208 42.8333 20.0625 42.4375 19.4687C42.0417 18.875 41.8438 18.2083 41.8438 17.4687C41.8438 16.875 41.9844 16.3906 42.2656 16.0156C42.5573 15.6406 42.9375 15.4531 43.4062 15.4531C43.6875 15.4531 43.9531 15.5208 44.2031 15.6562C44.4531 15.7917 44.6719 16.0052 44.8594 16.2969C45.0573 16.5885 45.2135 16.9635 45.3281 17.4219C45.4427 17.8802 45.5 18.4271 45.5 19.0625C45.5 19.3958 45.4583 19.7448 45.375 20.1094C45.4375 20.1198 45.5 20.125 45.5625 20.125C45.625 20.125 45.6927 20.125 45.7656 20.125C46.1198 20.125 46.4375 20.0833 46.7188 20C47 19.9167 47.2552 19.7917 47.4844 19.625C47.7135 19.4583 47.9167 19.2448 48.0938 18.9844C48.2812 18.7239 48.4583 18.4219 48.625 18.0781C48.6562 18.0156 48.724 17.9583 48.8281 17.9062C48.9323 17.8437 49.0365 17.8125 49.1406 17.8125C49.276 17.8125 49.401 17.8698 49.5156 17.9844C49.6406 18.0885 49.7031 18.2292 49.7031 18.4062C49.7031 18.4896 49.6823 18.5833 49.6406 18.6875C49.599 18.7812 49.5573 18.8698 49.5156 18.9531C49.3385 19.2656 49.1302 19.5677 48.8906 19.8594C48.6615 20.1406 48.3854 20.3906 48.0625 20.6094C47.75 20.8177 47.3958 20.9844 47 21.1094C46.6042 21.2344 46.1615 21.2917 45.6719 21.2812ZM43 17.3437C43 17.5417 43.026 17.75 43.0781 17.9687C43.1302 18.1875 43.2083 18.4062 43.3125 18.625C43.4271 18.8333 43.5625 19.0364 43.7188 19.2344C43.8854 19.4219 44.0781 19.5833 44.2969 19.7187C44.3281 19.5 44.3438 19.2864 44.3438 19.0781C44.3438 18.7969 44.3229 18.5104 44.2812 18.2187C44.2396 17.9271 44.1771 17.6614 44.0938 17.4219C44.0208 17.1719 43.9271 16.9739 43.8125 16.8281C43.6979 16.6719 43.5625 16.5937 43.4062 16.5937C43.3438 16.5937 43.2604 16.6406 43.1562 16.7344C43.0521 16.8281 43 17.0312 43 17.3437Z" fill="#2C43E4"/>
<path d="M52.0625 21.5937C52.2292 21.25 52.4219 20.875 52.6406 20.4687C52.8594 20.0521 53.0938 19.6354 53.3438 19.2187C53.5938 18.7917 53.8542 18.3698 54.125 17.9531C54.4062 17.5364 54.6979 17.1406 55 16.7656C55.3021 16.401 55.6042 16.1406 55.9062 15.9844C56.2188 15.8177 56.5104 15.7344 56.7812 15.7344C57.3229 15.7344 57.724 15.9323 57.9844 16.3281C58.2448 16.7239 58.375 17.2135 58.375 17.7969C58.375 17.9323 58.3646 18.0989 58.3438 18.2969C58.3333 18.4844 58.3177 18.6875 58.2969 18.9062C58.2865 19.125 58.2708 19.3489 58.25 19.5781C58.2396 19.7969 58.2344 20.0052 58.2344 20.2031C58.2344 20.4531 58.2448 20.6927 58.2656 20.9219C58.2969 21.151 58.349 21.3542 58.4219 21.5312C58.4948 21.6979 58.599 21.8333 58.7344 21.9375C58.8698 22.0312 59.0469 22.0781 59.2656 22.0781C59.6615 22.0781 60.0469 21.9271 60.4219 21.625C60.7969 21.3125 61.1406 20.9479 61.4531 20.5312C61.776 20.1042 62.0521 19.6719 62.2812 19.2344C62.5208 18.7969 62.6979 18.4427 62.8125 18.1719C62.8646 18.0573 62.9375 17.9687 63.0312 17.9062C63.1354 17.8437 63.2448 17.8125 63.3594 17.8125C63.5365 17.8125 63.6771 17.8802 63.7812 18.0156C63.8958 18.1406 63.9531 18.276 63.9531 18.4219C63.9531 18.4948 63.9375 18.5677 63.9062 18.6406C63.8646 18.7239 63.7812 18.8958 63.6562 19.1562C63.5312 19.4167 63.3646 19.7187 63.1562 20.0625C62.9583 20.3958 62.724 20.7552 62.4531 21.1406C62.1823 21.5156 61.8802 21.8594 61.5469 22.1719C61.224 22.4844 60.8698 22.7448 60.4844 22.9531C60.1094 23.1614 59.7135 23.2656 59.2969 23.2656C58.8281 23.2656 58.4479 23.1771 58.1562 23C57.8646 22.8125 57.6354 22.5729 57.4688 22.2812C57.3021 21.9792 57.1875 21.651 57.125 21.2969C57.0729 20.9323 57.0469 20.5677 57.0469 20.2031C57.0469 20.0469 57.0521 19.8698 57.0625 19.6719C57.0833 19.4739 57.1042 19.2656 57.125 19.0469C57.1562 18.8281 57.1771 18.6094 57.1875 18.3906C57.2083 18.1719 57.2188 17.9635 57.2188 17.7656C57.2188 17.4323 57.1667 17.2083 57.0625 17.0937C56.9583 16.9687 56.8646 16.9062 56.7812 16.9062C56.6146 16.9062 56.4219 17.0052 56.2031 17.2031C55.9948 17.3906 55.7708 17.6406 55.5312 17.9531C55.3021 18.2656 55.0625 18.6198 54.8125 19.0156C54.5729 19.401 54.3438 19.7864 54.125 20.1719C53.9167 20.5573 53.7188 20.9271 53.5312 21.2812C53.3542 21.625 53.2135 21.9114 53.1094 22.1406C52.901 22.5781 52.6927 22.8698 52.4844 23.0156C52.276 23.1719 52.0625 23.25 51.8438 23.25C51.5417 23.25 51.2969 23.1614 51.1094 22.9844C50.9323 22.7969 50.8438 22.5364 50.8438 22.2031C50.8438 22.1302 50.8542 21.9896 50.875 21.7812C50.8958 21.5625 50.9219 21.3073 50.9531 21.0156C50.9844 20.7135 51.0156 20.3906 51.0469 20.0469C51.0781 19.7031 51.1094 19.3646 51.1406 19.0312C51.1719 18.6875 51.1979 18.3698 51.2188 18.0781C51.2396 17.7864 51.25 17.5417 51.25 17.3437C51.25 17.0833 51.2396 16.8333 51.2188 16.5937C51.1979 16.3542 51.1562 16.2083 51.0938 16.1562C51 16.1875 50.8333 16.3854 50.5938 16.75C50.3542 17.1042 50.0469 17.7344 49.6719 18.6406C49.6198 18.7552 49.5417 18.8437 49.4375 18.9062C49.3333 18.9687 49.224 19 49.1094 19C48.9323 19 48.7917 18.9427 48.6875 18.8281C48.5833 18.7031 48.5312 18.5625 48.5312 18.4062C48.5312 18.3333 48.5469 18.2552 48.5781 18.1719C49.0469 17.0573 49.4844 16.2396 49.8906 15.7187C50.3073 15.1875 50.7188 14.9219 51.125 14.9219C51.3646 14.9219 51.5677 14.9844 51.7344 15.1094C51.901 15.2239 52.0312 15.3802 52.125 15.5781C52.2292 15.776 52.3021 15.9948 52.3438 16.2344C52.3958 16.4739 52.4219 16.7187 52.4219 16.9687C52.4219 17.1562 52.4062 17.4479 52.375 17.8437C52.3542 18.2396 52.3229 18.6667 52.2812 19.125C52.2396 19.5729 52.1979 20.0208 52.1562 20.4687C52.125 20.9167 52.0938 21.2917 52.0625 21.5937Z" fill="#2C43E4"/>
<path d="M64.7188 21.2812C64.9375 21.5833 65.2188 21.8281 65.5625 22.0156C65.9062 22.1927 66.3281 22.2812 66.8281 22.2812C67.3385 22.2812 67.8021 22.1614 68.2188 21.9219C68.6354 21.6719 69.0156 21.3489 69.3594 20.9531C69.7031 20.5573 70.0104 20.1146 70.2812 19.625C70.5521 19.1354 70.7969 18.6458 71.0156 18.1562C71.0677 18.0417 71.1406 17.9583 71.2344 17.9062C71.3281 17.8437 71.4323 17.8125 71.5469 17.8125C71.724 17.8125 71.8646 17.875 71.9688 18C72.0833 18.125 72.1406 18.2604 72.1406 18.4062C72.1406 18.4583 72.1354 18.5052 72.125 18.5469C72.1146 18.5781 72.099 18.6146 72.0781 18.6562C71.3594 20.2396 70.5729 21.4323 69.7188 22.2344C68.875 23.0364 67.9167 23.4479 66.8438 23.4687C66.1562 23.4687 65.5625 23.3333 65.0625 23.0625C64.5625 22.8021 64.151 22.4635 63.8281 22.0469C63.5052 21.6198 63.2656 21.1406 63.1094 20.6094C62.9531 20.0781 62.875 19.5469 62.875 19.0156C62.875 18.4844 62.9375 17.9948 63.0625 17.5469C63.1979 17.0989 63.3854 16.7083 63.625 16.375C63.875 16.0417 64.1667 15.7812 64.5 15.5937C64.8438 15.4062 65.2188 15.3125 65.625 15.3125C65.8646 15.3125 66.099 15.3646 66.3281 15.4687C66.5677 15.5625 66.7812 15.7031 66.9688 15.8906C67.1562 16.0677 67.3073 16.2864 67.4219 16.5469C67.5365 16.8073 67.5938 17.1042 67.5938 17.4375C67.5938 17.8646 67.5208 18.2656 67.375 18.6406C67.2292 19.0156 67.026 19.3646 66.7656 19.6875C66.5156 20.0104 66.2135 20.3073 65.8594 20.5781C65.5052 20.8489 65.125 21.0833 64.7188 21.2812ZM64.25 20.2656C64.5729 20.1302 64.8646 19.9583 65.125 19.75C65.3958 19.5417 65.625 19.3125 65.8125 19.0625C66 18.8125 66.1458 18.5521 66.25 18.2812C66.3542 18 66.4062 17.7187 66.4062 17.4375C66.4062 17.125 66.3281 16.8906 66.1719 16.7344C66.0156 16.5677 65.8333 16.4844 65.625 16.4844C65.3438 16.4844 65.1042 16.5625 64.9062 16.7187C64.7083 16.875 64.5469 17.0781 64.4219 17.3281C64.2969 17.5781 64.2031 17.8594 64.1406 18.1719C64.0885 18.4739 64.0625 18.776 64.0625 19.0781C64.0625 19.2656 64.0781 19.4635 64.1094 19.6719C64.151 19.8802 64.1979 20.0781 64.25 20.2656Z" fill="#2C43E4"/>
<path d="M75.1406 18.8594C75.1302 19.0156 75.0677 19.151 74.9531 19.2656C74.849 19.3698 74.7135 19.4219 74.5469 19.4219H74.5312C74.3646 19.4219 74.224 19.3646 74.1094 19.25C74.0052 19.125 73.9583 18.9792 73.9688 18.8125L74.4844 1.12499C74.4948 0.958323 74.5573 0.817698 74.6719 0.703115C74.7865 0.588531 74.9271 0.536448 75.0938 0.546865C75.2604 0.557281 75.3958 0.619781 75.5 0.734365C75.6146 0.848948 75.6719 0.989573 75.6719 1.15624L75.1406 18.8594ZM75.25 22.6562C75.25 22.8958 75.1667 23.0937 75 23.25C74.8438 23.4167 74.6458 23.5 74.4062 23.5C74.1667 23.5 73.9635 23.4167 73.7969 23.25C73.6406 23.0937 73.5625 22.8958 73.5625 22.6562C73.5625 22.4167 73.6406 22.2187 73.7969 22.0625C73.9635 21.8958 74.1667 21.8125 74.4062 21.8125C74.6458 21.8125 74.8438 21.8958 75 22.0625C75.1667 22.2187 75.25 22.4167 75.25 22.6562Z" fill="#2C43E4"/>
<path d="M19.0469 7.20312L20.9531 6.45312C21.0365 6.43229 21.1094 6.42188 21.1719 6.42188C21.3177 6.42188 21.4479 6.47396 21.5625 6.57812C21.6875 6.68229 21.75 6.82292 21.75 7C21.75 7.26042 21.625 7.44271 21.375 7.54688L19.3438 8.35938L20.7031 10.0781C20.7865 10.1927 20.8281 10.3125 20.8281 10.4375C20.8281 10.6042 20.7708 10.7448 20.6562 10.8594C20.5417 10.974 20.401 11.0312 20.2344 11.0312C20.0365 11.0312 19.8854 10.9531 19.7812 10.7969L18.3438 9L16.7344 10.6719C16.6198 10.7969 16.4792 10.8594 16.3125 10.8594C16.1354 10.8594 15.9896 10.7969 15.875 10.6719C15.7708 10.5469 15.7188 10.4115 15.7188 10.2656C15.7188 10.099 15.7708 9.96354 15.875 9.85938L17.4375 8.23438L15.5625 7.20312C15.3542 7.08854 15.25 6.91667 15.25 6.6875C15.25 6.51042 15.3073 6.36979 15.4219 6.26562C15.5469 6.15104 15.6823 6.09375 15.8281 6.09375C15.9219 6.09375 16.0208 6.11979 16.125 6.17188L17.8594 7.14062L17.9531 5.07812C17.9635 4.92188 18.0208 4.79167 18.125 4.6875C18.2396 4.57292 18.375 4.51562 18.5312 4.51562C18.7083 4.51562 18.8542 4.57292 18.9688 4.6875C19.0833 4.80208 19.1354 4.94792 19.125 5.125L19.0469 7.20312Z" fill="#2C43E4"/>
<path d="M12.0469 18.2031L13.9531 17.4531C14.0365 17.4323 14.1094 17.4219 14.1719 17.4219C14.3177 17.4219 14.4479 17.474 14.5625 17.5781C14.6875 17.6823 14.75 17.8229 14.75 18C14.75 18.2604 14.625 18.4427 14.375 18.5469L12.3438 19.3594L13.7031 21.0781C13.7865 21.1927 13.8281 21.3125 13.8281 21.4375C13.8281 21.6042 13.7708 21.7448 13.6562 21.8594C13.5417 21.974 13.401 22.0312 13.2344 22.0312C13.0365 22.0312 12.8854 21.9531 12.7812 21.7969L11.3438 20L9.73438 21.6719C9.61979 21.7969 9.47917 21.8594 9.3125 21.8594C9.13542 21.8594 8.98958 21.7969 8.875 21.6719C8.77083 21.5469 8.71875 21.4115 8.71875 21.2656C8.71875 21.099 8.77083 20.9635 8.875 20.8594L10.4375 19.2344L8.5625 18.2031C8.35417 18.0885 8.25 17.9167 8.25 17.6875C8.25 17.5104 8.30729 17.3698 8.42188 17.2656C8.54688 17.151 8.68229 17.0938 8.82812 17.0938C8.92188 17.0938 9.02083 17.1198 9.125 17.1719L10.8594 18.1406L10.9531 16.0781C10.9635 15.9219 11.0208 15.7917 11.125 15.6875C11.2396 15.5729 11.375 15.5156 11.5312 15.5156C11.7083 15.5156 11.8542 15.5729 11.9688 15.6875C12.0833 15.8021 12.1354 15.9479 12.125 16.125L12.0469 18.2031Z" fill="#2C43E4"/>
<path d="M4.04688 3.20312L5.95312 2.45312C6.03646 2.43229 6.10938 2.42188 6.17188 2.42188C6.31771 2.42188 6.44792 2.47396 6.5625 2.57812C6.6875 2.68229 6.75 2.82292 6.75 3C6.75 3.26042 6.625 3.44271 6.375 3.54688L4.34375 4.35938L5.70312 6.07812C5.78646 6.19271 5.82812 6.3125 5.82812 6.4375C5.82812 6.60417 5.77083 6.74479 5.65625 6.85938C5.54167 6.97396 5.40104 7.03125 5.23438 7.03125C5.03646 7.03125 4.88542 6.95312 4.78125 6.79688L3.34375 5L1.73438 6.67188C1.61979 6.79688 1.47917 6.85938 1.3125 6.85938C1.13542 6.85938 0.989583 6.79688 0.875 6.67188C0.770833 6.54688 0.71875 6.41146 0.71875 6.26562C0.71875 6.09896 0.770833 5.96354 0.875 5.85938L2.4375 4.23438L0.5625 3.20312C0.354167 3.08854 0.25 2.91667 0.25 2.6875C0.25 2.51042 0.307292 2.36979 0.421875 2.26562C0.546875 2.15104 0.682292 2.09375 0.828125 2.09375C0.921875 2.09375 1.02083 2.11979 1.125 2.17188L2.85938 3.14062L2.95312 1.07812C2.96354 0.921875 3.02083 0.791667 3.125 0.6875C3.23958 0.572917 3.375 0.515625 3.53125 0.515625C3.70833 0.515625 3.85417 0.572917 3.96875 0.6875C4.08333 0.802083 4.13542 0.947917 4.125 1.125L4.04688 3.20312Z" fill="#2C43E4"/>
<path d="M90.0469 20.2031L91.9531 19.4531C92.0365 19.4323 92.1094 19.4219 92.1719 19.4219C92.3177 19.4219 92.4479 19.474 92.5625 19.5781C92.6875 19.6823 92.75 19.8229 92.75 20C92.75 20.2604 92.625 20.4427 92.375 20.5469L90.3438 21.3594L91.7031 23.0781C91.7865 23.1927 91.8281 23.3125 91.8281 23.4375C91.8281 23.6042 91.7708 23.7448 91.6562 23.8594C91.5417 23.974 91.401 24.0312 91.2344 24.0312C91.0365 24.0312 90.8854 23.9531 90.7812 23.7969L89.3438 22L87.7344 23.6719C87.6198 23.7969 87.4792 23.8594 87.3125 23.8594C87.1354 23.8594 86.9896 23.7969 86.875 23.6719C86.7708 23.5469 86.7188 23.4115 86.7188 23.2656C86.7188 23.099 86.7708 22.9635 86.875 22.8594L88.4375 21.2344L86.5625 20.2031C86.3542 20.0885 86.25 19.9167 86.25 19.6875C86.25 19.5104 86.3073 19.3698 86.4219 19.2656C86.5469 19.151 86.6823 19.0938 86.8281 19.0938C86.9219 19.0938 87.0208 19.1198 87.125 19.1719L88.8594 20.1406L88.9531 18.0781C88.9635 17.9219 89.0208 17.7917 89.125 17.6875C89.2396 17.5729 89.375 17.5156 89.5312 17.5156C89.7083 17.5156 89.8542 17.5729 89.9688 17.6875C90.0833 17.8021 90.1354 17.9479 90.125 18.125L90.0469 20.2031Z" fill="#2C43E4"/>
<path d="M85.0469 6.20312L86.9531 5.45312C87.0365 5.43229 87.1094 5.42188 87.1719 5.42188C87.3177 5.42188 87.4479 5.47396 87.5625 5.57812C87.6875 5.68229 87.75 5.82292 87.75 6C87.75 6.26042 87.625 6.44271 87.375 6.54688L85.3438 7.35938L86.7031 9.07812C86.7865 9.19271 86.8281 9.3125 86.8281 9.4375C86.8281 9.60417 86.7708 9.74479 86.6562 9.85938C86.5417 9.97396 86.401 10.0312 86.2344 10.0312C86.0365 10.0312 85.8854 9.95312 85.7812 9.79688L84.3438 8L82.7344 9.67188C82.6198 9.79688 82.4792 9.85938 82.3125 9.85938C82.1354 9.85938 81.9896 9.79688 81.875 9.67188C81.7708 9.54688 81.7188 9.41146 81.7188 9.26562C81.7188 9.09896 81.7708 8.96354 81.875 8.85938L83.4375 7.23438L81.5625 6.20312C81.3542 6.08854 81.25 5.91667 81.25 5.6875C81.25 5.51042 81.3073 5.36979 81.4219 5.26562C81.5469 5.15104 81.6823 5.09375 81.8281 5.09375C81.9219 5.09375 82.0208 5.11979 82.125 5.17188L83.8594 6.14062L83.9531 4.07812C83.9635 3.92188 84.0208 3.79167 84.125 3.6875C84.2396 3.57292 84.375 3.51562 84.5312 3.51562C84.7083 3.51562 84.8542 3.57292 84.9688 3.6875C85.0833 3.80208 85.1354 3.94792 85.125 4.125L85.0469 6.20312Z" fill="#2C43E4"/>
<path d="M99.0469 13.2031L100.953 12.4531C101.036 12.4323 101.109 12.4219 101.172 12.4219C101.318 12.4219 101.448 12.474 101.562 12.5781C101.688 12.6823 101.75 12.8229 101.75 13C101.75 13.2604 101.625 13.4427 101.375 13.5469L99.3438 14.3594L100.703 16.0781C100.786 16.1927 100.828 16.3125 100.828 16.4375C100.828 16.6042 100.771 16.7448 100.656 16.8594C100.542 16.974 100.401 17.0312 100.234 17.0312C100.036 17.0312 99.8854 16.9531 99.7812 16.7969L98.3438 15L96.7344 16.6719C96.6198 16.7969 96.4792 16.8594 96.3125 16.8594C96.1354 16.8594 95.9896 16.7969 95.875 16.6719C95.7708 16.5469 95.7188 16.4115 95.7188 16.2656C95.7188 16.099 95.7708 15.9635 95.875 15.8594L97.4375 14.2344L95.5625 13.2031C95.3542 13.0885 95.25 12.9167 95.25 12.6875C95.25 12.5104 95.3073 12.3698 95.4219 12.2656C95.5469 12.151 95.6823 12.0938 95.8281 12.0938C95.9219 12.0938 96.0208 12.1198 96.125 12.1719L97.8594 13.1406L97.9531 11.0781C97.9635 10.9219 98.0208 10.7917 98.125 10.6875C98.2396 10.5729 98.375 10.5156 98.5312 10.5156C98.7083 10.5156 98.8542 10.5729 98.9688 10.6875C99.0833 10.8021 99.1354 10.9479 99.125 11.125L99.0469 13.2031Z" fill="#2C43E4"/>
</svg>
